# xmcd
# 
# Track frame offsets:
#     150
#     19054
#     32045
#     64907
#     91231
#     125342
#     157313
#     185933
# 
# Disc length: 2836
# 
# Revision: 1
# Processed by: cddbd v1.5.2PL0 Copyright (c) Steve Scherf et al.
# Submitted via: fre:ac v1.0.31
# 
DISCID=6e0b1208
DTITLE=John Abercrombie - Up And Coming
DYEAR=2016
DGENRE=Jazz
TTITLE0=Joy
TTITLE1=Flipside
TTITLE2=Sunday School
TTITLE3=Up and Coming
TTITLE4=Tears
TTITLE5=Silver Circle
TTITLE6=Nardis
TTITLE7=Jumbles
EXTD=YEAR: 2016
EXTT0=
EXTT1=
EXTT2=
EXTT3=
EXTT4=
EXTT5=
EXTT6=
EXTT7=
PLAYORDER=
